<?xml version="1.0" encoding="utf-8"?>
<!-- Generator: Adobe Illustrator 21.0.0, SVG Export Plug-In . SVG Version: 6.00 Build 0)  -->
<svg version="1.1" xmlns="http://www.w3.org/2000/svg" xmlns:xlink="http://www.w3.org/1999/xlink" x="0px" y="0px"
	 viewBox="0 0 218.4 218.4" style="enable-background:new 0 0 218.4 218.4;" xml:space="preserve">
<style type="text/css">
	.st0{clip-path:url(#SVGID_2_);fill:url(#SVGID_3_);}
	.st1{fill:#EAD097;}
	.st2{fill:#B0913E;}
	.st3{fill:#FFFAD9;}
	.st4{fill:#A0A09F;}
	.st5{fill:#F4A07F;}
	.st6{fill:#B78553;}
	.st7{fill:#727272;}
	.st8{fill:#F4BABA;}
	.st9{fill:#911913;}
	.st10{fill:#F39991;}
	.st11{fill:#E83F3A;}
	.st12{fill:#E52623;}
	.st13{fill:#B71918;}
	.st14{fill:#735E37;}
	.st15{fill:#9A4129;}
	.st16{fill:#E1BE82;}
	.st17{fill:#C7C6C6;}
	.st18{fill:#736363;}
	.st19{display:none;}
	.st20{display:inline;fill:#FFFAD9;}
	.st21{display:inline;fill:#A0A09F;}
	.st22{display:inline;fill:#F4A07F;}
	.st23{display:inline;fill:#B78553;}
	.st24{display:inline;fill:#F4BABA;}
	.st25{display:inline;fill:#F39991;}
	.st26{display:inline;fill:#E83F3A;}
	.st27{display:inline;fill:#727272;}
	.st28{display:inline;fill:#E52623;}
</style>
<g id="Calque_6">
	<g>
		<defs>
			<circle id="SVGID_1_" cx="109.2" cy="109.2" r="102.2"/>
		</defs>
		<clipPath id="SVGID_2_">
			<use xlink:href="#SVGID_1_"  style="overflow:visible;"/>
		</clipPath>
		<radialGradient id="SVGID_3_" cx="85.3428" cy="85.5245" r="169.3167" gradientUnits="userSpaceOnUse">
			<stop  offset="0" style="stop-color:#D62219"/>
			<stop  offset="1" style="stop-color:#140506"/>
		</radialGradient>
		<circle class="st0" cx="85.3" cy="85.5" r="169.3"/>
	</g>
</g>
<g id="Logo">
	<path class="st1" d="M61.8,195.2c-2.8-15.1-13.5-104.7,40.7-74.3l12.3,11.3l11.2-10.3l-9.3-14.3c-25.1-65.2,76.2-34.2,85.5-30
		c9.3,4.2-3.2-8.1-3.2-8.1c-18.5-10.6-67.8-41.3-113,1.2L68.1,87.3c0,0-39,25.1-17.7,100.5C50.4,187.8,64.7,210.3,61.8,195.2z"/>
	<path class="st1" d="M54.4,233"/>
	<path class="st2" d="M62.5,195.5c-5.5-38.9-8.1-107.5,52.3-63.3l-12.2-11.8c-54.4-32.5-48.3,35.7-41.2,74.5"/>
	<path class="st2" d="M202.3,78c-32.8-10.5-113.7-30.3-76.4,44l-9.6-14.2C90.1,39.9,169.4,64.5,202,77"/>
	<path class="st3" d="M61.4,84.4c2.3-2.5-2.4-11.5-3.1-13.6C57.5,68.6,68.4,78,68.4,78l2.4,5.8C70.8,83.8,60.7,85.2,61.4,84.4z"/>
	<path class="st4" d="M45.7,84.2c0,0-7.1-11.9-8.9-22.5l7.6-2.4c2-0.3,1.6-1.9-0.5-2.5c0,0-10.4-0.8-12.9,2.6c0,0,3.2,29.5,10.9,40
		c6,8.3,4.1,2.7,4.1,2.7L45.7,84.2z"/>
	<path class="st5" d="M47.6,83.4c0,0,9.8-0.4,14.3,0.6l8.9-0.2l10.7,12.1l16.5,8.3l0.8,4.4L68.7,90.9c0,0-8.9-5.7-22.4-5L47.6,83.4z
		"/>
	<path class="st6" d="M46.3,85.8c0,0,13.8-1.3,27.3,7c13.7,8.4,23.9,13.9,23.9,13.9l0.5-2.6l1.7-1.6l9.8,11.6l-7,6.2
		c0,0-25.1-26.4-56.8-24L46.3,85.8z"/>
	<path class="st7" d="M44.7,85c0,0-1.1,14.8,0.4,18.5c0,0,1.5,2.1,1.1-1.5l0.1-16.2l1.3-2.4L44.7,85z"/>
	<path class="st8" d="M44.4,59.3l-7.6,2.4c0,0,1.3,10.7,8,23.2l2.8-1.6c0,0-9.9-16.9-9.7-21.3L44.4,59.3z"/>
	<path class="st4" d="M89,44.4c0,0-10.5-8.8-20.3-12l-3.2,7.6c-0.5,2-2,1.4-2.3-0.8c0,0,0.6-10.9,4.1-13.1c0,0,27.7,7,36.7,16.2
		c7.1,7.3,2.1,4.5,2.1,4.5L89,44.4z"/>
	<path class="st3" d="M87.1,61.3c-2.6,2.1-10.5-3.9-12.5-4.9c-1.9-1,5.7,11.4,5.7,11.4l5.4,3.1C85.7,70.8,88,60.6,87.1,61.3z"/>
	<path class="st5" d="M87.9,46.2c0,0-1.6,10.1-1.2,14.9l-1.2,9.1l10.1,12.7l5.9,18.1l4.1,1.4L92.4,68.9c0,0-4.3-9.8-2-23.7
		L87.9,46.2z"/>
	<path class="st6" d="M90.4,45.2c0,0-2.9,14.1,3.3,29.2c6.3,15.3,10.3,26.5,10.3,26.5l-2.6,0.2l-1.7,1.6l9.8,11.6l6.8-6.4
		c0,0-22-29.2-15.8-61.8L90.4,45.2z"/>
	<path class="st7" d="M89.8,43.5c0,0,14.2,0.7,17.6,2.7c0,0,1.8,1.8-1.6,0.9l-15.4-1.9l-2.5,1L89.8,43.5z"/>
	<path class="st8" d="M65.4,39.9l3.2-7.6c0,0,10.1,2.7,21.1,11.1l-1.9,2.7c0,0-14.8-12.3-19-12.6L65.4,39.9z"/>
	<polygon class="st9" points="98,104.2 101.5,101 95.6,82.9 85.5,70.3 57.5,53.4 70.7,83.9 81.6,95.9 	"/>
	<polygon class="st10" points="57.5,53.4 80.4,72 85,85.2 73,78.8 	"/>
	<polygon class="st11" points="57.5,53.4 70.7,83.9 73,78.8 	"/>
	<polygon class="st11" points="57.5,53.4 80.4,72 85.5,70.3 	"/>
	<polygon class="st12" points="85,85.2 80.4,72 85.5,70.3 95.6,82.9 	"/>
	<polygon class="st13" points="85,85.2 95.6,82.9 101.5,101 	"/>
	<polygon class="st12" points="85,85.2 73,78.8 70.7,83.9 81.6,95.9 	"/>
	<polygon class="st13" points="85,85.2 81.6,95.9 98,104.2 	"/>
	<polygon class="st14" points="168.1,195.3 101.1,118.6 103.2,106.7 114.8,106 180,185.8 	"/>
	<polygon class="st15" points="98,104.2 101.5,101 102.7,103.3 100.1,105.7 	"/>
	<polygon class="st16" points="173,190 100.8,105.1 102,104 174.3,189 	"/>
</g>
<g id="Calque_5">
	<path class="st17" d="M109.2,218.4C49,218.4,0,169.4,0,109.2C0,49,49,0,109.2,0s109.2,49,109.2,109.2
		C218.4,169.4,169.4,218.4,109.2,218.4z M109.2,10C54.5,10,10,54.5,10,109.2s44.5,99.2,99.2,99.2s99.2-44.5,99.2-99.2
		S163.9,10,109.2,10z"/>
	<path class="st18" d="M109.2,209.4C54,209.4,9,164.5,9,109.2C9,54,54,9,109.2,9C164.5,9,209.4,54,209.4,109.2
		C209.4,164.5,164.5,209.4,109.2,209.4z M109.2,11C55.1,11,11,55.1,11,109.2c0,54.1,44,98.2,98.2,98.2s98.2-44,98.2-98.2
		C207.4,55.1,163.4,11,109.2,11z"/>
</g>
<g id="Calque_4" class="st19">
	<path class="st20" d="M39.2,53c2.3-2.5-2.4-11.5-3.1-13.6c-0.7-2.1,10.2,7.3,10.2,7.3l2.4,5.8C48.6,52.4,38.4,53.8,39.2,53z"/>
	<path class="st21" d="M23.4,52.8c0,0-7.1-11.9-8.9-22.5l7.6-2.4c2-0.3,1.6-1.9-0.5-2.5c0,0-10.4-0.8-12.9,2.6c0,0,3.2,29.5,10.9,40
		c6,8.3,4.1,2.7,4.1,2.7L23.4,52.8z"/>
	<path class="st22" d="M25.3,52c0,0,9.8-0.4,14.3,0.6l8.9-0.2l10.7,12.1l16.5,8.3l0.8,4.4L46.4,59.5c0,0-8.9-5.7-22.4-5L25.3,52z"/>
	<path class="st23" d="M24.1,54.4c0,0,13.8-1.3,27.3,7c13.7,8.4,23.9,13.9,23.9,13.9l0.5-2.6l1.7-1.6l9.8,11.6l-7,6.2
		c0,0-25.1-26.4-56.8-24L24.1,54.4z"/>
	<path class="st24" d="M22.1,27.9l-7.6,2.4c0,0,1.3,10.7,8,23.2l2.8-1.6c0,0-9.9-16.9-9.7-21.3L22.1,27.9z"/>
	<path class="st21" d="M66.7,13c0,0-10.5-8.8-20.3-12l-3.2,7.6c-0.5,2-2,1.4-2.3-0.8c0,0,0.6-10.9,4.1-13.1c0,0,27.7,7,36.7,16.2
		c7.1,7.3,2.1,4.5,2.1,4.5L66.7,13z"/>
	<path class="st20" d="M64.9,29.9C62.2,32,54.3,26,52.4,24.9c-1.9-1,5.7,11.4,5.7,11.4l5.4,3.1C63.4,39.4,65.7,29.2,64.9,29.9z"/>
	<path class="st22" d="M65.7,14.8c0,0-1.6,10.1-1.2,14.9l-1.2,9.1l10.1,12.7l5.9,18.1l4.1,1.4L70.2,37.6c0,0-4.3-9.8-2-23.7
		L65.7,14.8z"/>
	<path class="st23" d="M68.2,13.8c0,0-2.9,14.1,3.3,29.2c6.3,15.3,10.3,26.5,10.3,26.5l-2.6,0.2l-1.7,1.6l9.8,11.6l6.8-6.4
		c0,0-22-29.2-15.8-61.8L68.2,13.8z"/>
	<path class="st24" d="M43.2,8.6L46.4,1c0,0,10.1,2.7,21.1,11.1l-1.9,2.7c0,0-14.8-12.3-19-12.6L43.2,8.6z"/>
	<polygon class="st25" points="35.2,22 58.2,40.6 62.8,53.8 50.8,47.4 	"/>
	<polygon class="st26" points="35.2,22 48.5,52.5 50.8,47.4 	"/>
	<polygon class="st26" points="35.2,22 58.2,40.6 63.3,38.9 	"/>
	<path class="st27" d="M22.5,53.6c0,0-1.1,14.8,0.4,18.5c0,0,1.5,2.1,1.1-1.5l0.1-16.2l1.3-2.4L22.5,53.6z"/>
	<path class="st27" d="M67.5,12.1c0,0,14.2,0.7,17.6,2.7c0,0,1.8,1.8-1.6,0.9l-15.4-1.9l-2.5,1L67.5,12.1z"/>
	<polygon class="st28" points="62.8,53.8 58.2,40.6 63.3,38.9 73.4,51.5 	"/>
	<polygon class="st28" points="62.8,53.8 50.8,47.4 48.5,52.5 59.3,64.5 	"/>
</g>
</svg>
