<?xml version="1.0" encoding="utf-8"?>
<!-- Generator: Adobe Illustrator 21.0.0, SVG Export Plug-In . SVG Version: 6.00 Build 0)  -->
<svg version="1.1" xmlns="http://www.w3.org/2000/svg" xmlns:xlink="http://www.w3.org/1999/xlink" x="0px" y="0px"
	 viewBox="0 0 358.5 358.5" style="enable-background:new 0 0 358.5 358.5;" xml:space="preserve">
<style type="text/css">
	.st0{clip-path:url(#SVGID_2_);fill:url(#SVGID_3_);}
	.st1{fill:#AFAFAF;}
	.st2{fill:#676766;}
	.st3{fill:#EAD097;}
	.st4{fill:#B0913E;}
	.st5{fill:#FFFAD9;}
	.st6{fill:#A0A09F;}
	.st7{fill:#F4A07F;}
	.st8{fill:#B78553;}
	.st9{fill:#727272;}
	.st10{fill:#F4BABA;}
	.st11{fill:#911913;}
	.st12{fill:#F39991;}
	.st13{fill:#E83F3A;}
	.st14{fill:#E52623;}
	.st15{fill:#B71918;}
	.st16{fill:#735E37;}
	.st17{fill:#9A4129;}
	.st18{fill:#FFEAC0;}
	.st19{fill:#DDB26C;}
	.st20{fill:#E1BE82;}
	.st21{fill:#CA8759;}
</style>
<g id="Calque_6">
	<g>
		<defs>
			<circle id="SVGID_1_" cx="179.3" cy="179.3" r="172.5"/>
		</defs>
		<clipPath id="SVGID_2_">
			<use xlink:href="#SVGID_1_"  style="overflow:visible;"/>
		</clipPath>
		<radialGradient id="SVGID_3_" cx="136.7382" cy="134.4826" r="285.6954" gradientUnits="userSpaceOnUse">
			<stop  offset="0" style="stop-color:#802411"/>
			<stop  offset="1" style="stop-color:#0F0809"/>
		</radialGradient>
		<circle class="st0" cx="136.7" cy="134.5" r="285.7"/>
	</g>
	<path class="st1" d="M179.3,355.8c-97.3,0-176.5-79.2-176.5-176.5C2.8,81.9,81.9,2.8,179.3,2.8s176.5,79.2,176.5,176.5
		C355.8,276.6,276.6,355.8,179.3,355.8z M179.3,10.8c-92.9,0-168.5,75.6-168.5,168.5c0,92.9,75.6,168.5,168.5,168.5
		s168.5-75.6,168.5-168.5C347.8,86.4,272.2,10.8,179.3,10.8z"/>
	<path class="st2" d="M179.3,358.5C80.4,358.5,0,278.1,0,179.3C0,80.4,80.4,0,179.3,0c98.8,0,179.3,80.4,179.3,179.3
		C358.5,278.1,278.1,358.5,179.3,358.5z M179.3,4C82.6,4,4,82.6,4,179.3s78.6,175.3,175.3,175.3s175.3-78.6,175.3-175.3
		S275.9,4,179.3,4z"/>
</g>
<g id="Logo">
	<path class="st3" d="M109.9,293.4c0-4.5-60.5-172.7,39-126.7l17.1,13.3l13.8-13.8l-13.3-17.3c-47.1-98.4,122-40.3,127.4-39.4
		c4.4,0.8,15.6-13.3,15.6-13.3l-10.8-4.2c0,0-8,10.3-21.3,5.2c-18.4-7.1-93-54.7-154.2,7.7L101,127c0,0-57.9,40.8-4.4,153
		c0,0,5.9,11.9-4,18.8l2.3,12.7C94.9,311.5,109.9,300,109.9,293.4z"/>
	<path class="st4" d="M165.9,179.9l-17-14c-101.1-50.1-39,127.4-39,127.4S53.5,110.9,165.9,179.9z"/>
	<path class="st4" d="M179.7,166.1L165.9,149c-49.8-104.2,127.9-39.6,127.9-39.6S111.4,53.7,179.7,166.1z"/>
	<path class="st5" d="M92,123.8c2.8-3.3-4.1-14.3-5.2-16.9c-1.1-2.6,13.9,8.4,13.9,8.4l3.6,7.1C104.2,122.4,91,124.9,92,123.8z"/>
	<path class="st6" d="M71.3,124.9c0,0-10.3-14.5-13.5-27.6l9.8-3.7c2.6-0.6,1.9-2.5-0.8-3.1c0,0-13.7-0.1-16.8,4.3
		c0,0,6.6,36.9,17.5,49.5c8.6,9.9,5.5,3.1,5.5,3.1L71.3,124.9z"/>
	<path class="st7" d="M73.7,123.7c0,0,12.9-1.2,18.9-0.3l11.7-1l15.1,14.4l22.3,9.2l1.5,5.5l-41.1-20c0,0-12.1-6.5-29.8-4.6
		L73.7,123.7z"/>
	<path class="st8" d="M72.2,126.9c0,0,18-2.7,36.5,6.7c18.7,9.5,32.5,15.7,32.5,15.7l0.4-3.4l2.1-2.1l13.8,13.8L149,166
		c0,0-35.1-31.2-76.5-25.8L72.2,126.9z"/>
	<path class="st9" d="M70.1,125.9c0,0-0.2,18.7,2,23.3c0,0,2.1,2.5,1.3-2l-1.2-20.4l1.4-3.2L70.1,125.9z"/>
	<path class="st10" d="M67.5,93.6l-9.8,3.7c0,0,2.6,13.4,12.3,28.6l3.6-2.2c0,0-14.3-20.5-14.4-26L67.5,93.6z"/>
	<path class="st6" d="M124.9,71.3c0,0-14.5-10.3-27.6-13.5l-3.7,9.8c-0.6,2.6-2.5,1.9-3.1-0.8c0,0-0.1-13.7,4.3-16.8
		c0,0,36.9,6.6,49.5,17.5c9.9,8.6,3.1,5.5,3.1,5.5L124.9,71.3z"/>
	<path class="st5" d="M123.8,92.8c-3.3,2.8-14.2-4.1-16.8-5.2c-2.6-1.1,8.4,13.9,8.4,13.9l7.3,3.4
		C122.7,104.9,124.9,91.8,123.8,92.8z"/>
	<path class="st7" d="M123.6,73.7c0,0-1.2,12.9-0.3,18.9l-0.9,11.6l14.2,15.2l9.2,22.3l5.5,1.5l-20-41.2c0,0-6.4-12.1-4.5-29.7
		L123.6,73.7z"/>
	<path class="st8" d="M126.8,72.3c0,0-2.7,18,6.7,36.5c9.5,18.8,15.7,32.5,15.7,32.5l-3.4,0.4l-2.1,2.1l13.8,13.8l8.3-8.6
		c0,0-31.2-35.1-25.8-76.5L126.8,72.3z"/>
	<path class="st9" d="M125.9,70.2c0,0,18.7-0.2,23.3,2c0,0,2.5,2.1-2,1.3l-20.4-1.2l-3.2,1.4L125.9,70.2z"/>
	<path class="st10" d="M93.6,67.6l3.7-9.8c0,0,13.4,2.6,28.6,12.3l-2.2,3.6c0,0-20.5-14.3-26-14.4L93.6,67.6z"/>
	<polygon class="st11" points="141.7,145.9 145.9,141.7 136.7,119.3 122.5,104.2 84.3,85.2 104.1,122.5 119.3,136.7 	"/>
	<polygon class="st12" points="84.3,85.2 115.9,106.8 123,123.1 106.8,116 	"/>
	<polygon class="st13" points="84.3,85.2 104.1,122.5 106.8,116 	"/>
	<polygon class="st13" points="84.3,85.2 115.9,106.8 122.5,104.2 	"/>
	<polygon class="st14" points="123,123.1 115.9,106.8 122.5,104.2 136.7,119.3 	"/>
	<polygon class="st15" points="123,123.1 136.7,119.3 145.9,141.7 	"/>
	<polygon class="st14" points="123,123.1 106.8,116 104.1,122.5 119.3,136.7 	"/>
	<polygon class="st15" points="123,123.1 119.3,136.7 141.7,145.9 	"/>
	<polygon class="st16" points="146.9,163.9 148.6,148.6 163.8,146.9 226.7,214.3 213.6,227.4 	"/>
	<polygon class="st17" points="141.7,145.9 145.9,141.7 147.7,144.5 144.5,147.7 	"/>
	<polygon class="st18" points="213.6,227.4 236.8,261.9 255.5,267 267,255.5 261.8,236.9 226.7,214.3 	"/>
	<polygon class="st19" points="213.6,227.4 216.8,224.2 236.8,261.9 	"/>
	<polygon class="st19" points="226.7,214.3 223.5,217.5 261.8,236.9 	"/>
	
		<rect x="196.7" y="124.7" transform="matrix(0.7071 -0.7071 0.7071 0.7071 -81.9249 197.7846)" class="st20" width="2.1" height="146.2"/>
	<polygon class="st21" points="223.5,224.9 224,232.8 243.9,255.8 245.5,247 	"/>
	<polygon class="st21" points="224.9,223.5 232.8,224 255.8,243.9 247,245.5 	"/>
</g>
</svg>
